<svg xmlns="http://www.w3.org/2000/svg" height="48" width="48"><rect ry="13.331" y=".5" x=".5" height="47" width="47" fill="#e6e6e6" stroke="#e6e6e6" stroke-linecap="round" stroke-linejoin="round"/><path d="M8.5 16.01l11-6.51v29l-11-6.51z" fill="#4d4d4d" stroke="#4d4d4d" stroke-linecap="round" stroke-linejoin="round"/><rect ry="1.586" y="17.5" x="1.5" height="13" width="4" fill="#4d4d4d" stroke="#4d4d4d" stroke-linecap="round" stroke-linejoin="round"/><path transform="rotate(-78.387) skewX(-.156)" d="M4.362 32.594A24.782 24.626 0 0 1-14.566 48.92a24.782 24.626 0 0 1-23.582-8.435" fill="none" stroke="#8ebc91" stroke-width="3" stroke-linecap="round" stroke-linejoin="round"/><path d="M-3.02 30.332a17.272 17.164 0 0 1-12.816 11.233 17.272 17.164 0 0 1-16.263-5.217" transform="rotate(-78.387) skewX(-.156)" fill="none" stroke="#69a56d" stroke-width="3" stroke-linecap="round" stroke-linejoin="round"/><path transform="rotate(-78.387) skewX(-.156)" d="M-11.224 30.299A9.762 9.701 0 0 1-24.64 32.8" fill="none" stroke="#4f8352" stroke-width="3" stroke-linecap="round" stroke-linejoin="round"/></svg>